HIERARCHY
ROOT Hips
{
	OFFSET	0.00	0.00	0.00
	CHANNELS 6 Xposition Yposition Zposition Zrotation Xrotation Yrotation
	JOINT LeftUpLeg
	{
		OFFSET	 0.126116	-0.014019	-0.065224
		CHANNELS 3 Zrotation Xrotation Yrotation
		JOINT LeftLeg
		{
			OFFSET	 0.000000	 0.000000	 0.569914
			CHANNELS 3 Zrotation Xrotation Yrotation
			JOINT LeftFoot
			{
				OFFSET	 0.000000	 0.000000	 0.544423
				CHANNELS 3 Zrotation Xrotation Yrotation
				JOINT LeftToeBase
				{
					OFFSET	 0.000000	 0.000000	 0.207117
					CHANNELS 3 Zrotation Xrotation Yrotation
					End Site
					{
						OFFSET	 0.000000	 0.000000	 0.207117
					}
				}
			}
		}
	}
	JOINT RightUpLeg
	{
		OFFSET	-0.124023	-0.008373	-0.065224
		CHANNELS 3 Zrotation Xrotation Yrotation
		JOINT RightLeg
		{
			OFFSET	 0.000000	 0.000000	 0.570047
			CHANNELS 3 Zrotation Xrotation Yrotation
			JOINT RightFoot
			{
				OFFSET	 0.000000	 0.000000	 0.544354
				CHANNELS 3 Zrotation Xrotation Yrotation
				JOINT RightToeBase
				{
					OFFSET	 0.000000	 0.000000	 0.207540
					CHANNELS 3 Zrotation Xrotation Yrotation
					End Site
					{
						OFFSET	 0.000000	 0.000000	 0.207540
					}
				}
			}
		}
	}
	JOINT Spine
	{
		OFFSET	 0.000184	-0.007763	 0.117403
		CHANNELS 3 Zrotation Xrotation Yrotation
		JOINT Spine1
		{
			OFFSET	 0.000000	 0.000000	 0.137269
			CHANNELS 3 Zrotation Xrotation Yrotation
			JOINT Spine2
			{
				OFFSET	 0.000000	 0.000000	 0.156879
				CHANNELS 3 Zrotation Xrotation Yrotation
				JOINT LeftShoulder
				{
					OFFSET	 0.080501	-0.002496	 0.160144
					CHANNELS 3 Zrotation Xrotation Yrotation
					JOINT LeftArm
					{
						OFFSET	 0.000000	 0.000000	 0.164363
						CHANNELS 3 Zrotation Xrotation Yrotation
						JOINT LeftForeArm
						{
							OFFSET	 0.000000	 0.000000	 0.364576
							CHANNELS 3 Zrotation Xrotation Yrotation
							JOINT LeftHand
							{
								OFFSET	 0.000000	 0.000000	 0.360812
								CHANNELS 3 Zrotation Xrotation Yrotation
								JOINT LeftHandIndex1
								{
									OFFSET	 0.000000	 0.000000	 0.086006
									CHANNELS 3 Zrotation Xrotation Yrotation
									JOINT LeftHandIndex2
									{
										OFFSET	 0.000000	 0.000000	 0.047236
										CHANNELS 3 Zrotation Xrotation Yrotation
										JOINT LeftHandIndex3
										{
											OFFSET	-0.004284	-0.000551	 0.038166
											CHANNELS 3 Zrotation Xrotation Yrotation
											End Site
											{
												OFFSET	-0.004284	-0.000551	 0.038166
											}
										}
									}
								}
							}
						}
					}
				}
				JOINT Neck
				{
					OFFSET	 0.000000	 0.000000	 0.176489
					CHANNELS 3 Zrotation Xrotation Yrotation
					JOINT Head
					{
						OFFSET	 0.000000	-0.001747	 0.077940
						CHANNELS 3 Zrotation Xrotation Yrotation
						End Site
						{
							OFFSET	 0.000000	-0.001747	 0.077940
						}
					}
				}
				JOINT RightShoulder
				{
					OFFSET	-0.080363	 0.000306	 0.159706
					CHANNELS 3 Zrotation Xrotation Yrotation
					JOINT RightArm
					{
						OFFSET	 0.000000	 0.000000	 0.164196
						CHANNELS 3 Zrotation Xrotation Yrotation
						JOINT RightForeArm
						{
							OFFSET	 0.000000	 0.000000	 0.365611
							CHANNELS 3 Zrotation Xrotation Yrotation
							JOINT RightHand
							{
								OFFSET	 0.000000	 0.000000	 0.360648
								CHANNELS 3 Zrotation Xrotation Yrotation
								JOINT RightHandIndex1
								{
									OFFSET	 0.000000	 0.000000	 0.069977
									CHANNELS 3 Zrotation Xrotation Yrotation
									JOINT RightHandIndex2
									{
										OFFSET	 0.000000	 0.000000	 0.052305
										CHANNELS 3 Zrotation Xrotation Yrotation
										JOINT RightHandIndex3
										{
											OFFSET	 0.009002	-0.000782	 0.042196
											CHANNELS 3 Zrotation Xrotation Yrotation
											End Site
											{
												OFFSET	 0.009002	-0.000782	 0.042196
											}
										}
									}
								}
							}
						}
					}
				}
			}
		}
	}
}
MOTION
Frames:    5
Frame Time: 0.03333334
-0.000118	 0.043484	 1.275855	-0.084404	 2.453655	 0.455614	 3.936604	-5.514211	 178.215300	 2.278802	-12.629270	 0.589729	-0.417485	 70.818310	 0.267642	-2.385833	 28.452750	 0.000004	 3.634652	-5.114994	-178.365100	-0.798189	-11.281720	 0.852207	 5.373007	 69.885010	 0.946820	 2.384659	 28.388700	-0.000001	-6.781654	 6.391767	 1.378423	-3.085785	-3.294389	-0.196661	 9.572158	 6.123532	-0.625874	-91.174670	 69.822950	-177.838700	-8.401072	 4.014952	-22.068410	 25.848160	-0.131667	-0.638090	-9.714673	-22.850260	-4.475076	-2.027600	 6.559038	 9.033609	-5.188889	 0.308190	 3.541030	-5.234859	 0.342567	 0.430617	 4.359259	 17.695500	-6.657406	 4.698547	-13.512240	 2.191983	 89.021820	 68.731090	 177.380200	 8.991892	 7.720911	 7.123186	-26.205190	-8.373764	 23.612860	 7.255543	-22.914950	 6.668190	 1.803333	 3.979147	-15.098590	 4.898592	 3.004813	-9.310344	 5.224449	 0.395017	 2.014677
-0.000162	 0.043843	 1.275910	-0.080646	 2.524187	 0.456667	 3.941267	-5.577217	 178.216500	 2.262815	-12.561670	 0.583139	-0.383600	 70.751740	 0.246653	-2.385833	 28.452750	 0.000004	 3.619296	-5.172844	-178.358800	-0.796462	-11.205990	 0.846898	 5.333745	 69.825040	 0.987897	 2.384659	 28.388700	-0.000001	-6.869657	 6.447991	 1.394247	-3.098544	-3.447354	-0.206740	 9.595430	 6.336927	-0.654023	-91.156280	 69.696460	-177.796000	-8.280447	 4.039743	-22.276270	 25.753620	-0.130601	-0.658899	-9.571474	-23.042120	-4.524426	-2.027600	 6.559038	 9.033609	-5.188889	 0.308190	 3.541030	-5.234859	 0.342567	 0.430617	 4.397236	 18.026070	-6.761663	 4.736962	-13.753540	 2.199924	 88.996730	 68.557240	 177.328900	 8.869617	 7.704581	 7.231921	-26.159090	-8.411103	 23.782890	 7.089070	-23.041980	 6.624462	 1.803333	 3.979147	-15.098590	 4.898592	 3.004813	-9.310344	 5.224449	 0.395017	 2.014677
-0.000425	 0.046254	 1.276145	-0.059557	 2.960057	 0.470550	 3.967686	-6.010423	 178.216000	 2.165665	-12.209940	 0.546476	-0.173168	 70.360940	 0.112321	-2.385833	 28.452750	 0.000004	 3.517221	-5.560439	-178.328400	-0.785572	-10.775530	 0.816813	 5.094532	 69.460770	 1.227848	 2.384659	 28.388700	-0.000001	-7.416348	 6.796056	 1.484609	-3.180875	-4.309537	-0.254909	 9.744206	 7.613964	-0.831153	-91.039400	 68.916250	-177.535300	-7.478020	 4.366732	-23.648620	 25.177030	-0.123411	-0.789281	-8.716923	-24.193200	-4.848727	-2.027600	 6.559038	 9.033609	-5.188889	 0.308190	 3.541030	-5.234859	 0.342567	 0.430617	 4.646902	 20.063630	-7.412676	 4.983558	-15.238170	 2.250747	 88.837140	 67.484960	 177.016400	 8.105631	 7.823602	 7.988519	-25.902460	-8.603784	 24.715310	 6.075938	-23.810230	 6.360320	 1.803333	 3.979147	-15.098590	 4.898592	 3.004813	-9.310344	 5.224449	 0.395017	 2.014677
-0.000865	 0.049689	 1.276035	-0.008256	 3.596617	 0.510836	 3.945932	-6.878857	 178.188900	 2.154155	-12.185900	 0.542984	-0.011096	 70.151070	-0.059246	-2.385833	 28.452750	 0.000004	 3.369860	-6.332982	-178.332100	-0.783125	-10.586470	 0.803095	 4.804235	 69.151080	 1.537578	 2.384659	 28.388700	-0.000001	-7.926494	 7.162433	 1.572815	-3.232785	-5.286966	-0.341356	 9.748467	 8.880672	-0.990573	-90.946480	 68.270970	-177.348300	-6.576419	 5.344058	-25.164280	 24.444230	-0.113812	-0.942829	-8.113430	-25.742050	-5.421206	-2.027600	 6.559038	 9.033609	-5.188889	 0.308190	 3.541030	-5.234859	 0.342567	 0.430617	 4.708854	 21.977630	-7.977727	 5.297462	-16.771760	 2.369569	 88.669680	 66.310160	 176.728700	 7.113482	 8.384321	 8.880114	-25.461910	-8.641869	 25.540150	 5.063194	-24.852170	 6.196434	 1.803333	 3.979147	-15.098590	 4.898592	 3.004813	-9.310344	 5.224449	 0.395017	 2.014677
-0.001268	 0.053065	 1.275746	 0.039808	 4.178343	 0.551323	 3.875557	-7.765550	 178.152800	 2.124181	-12.328760	 0.551187	 0.130569	 70.037930	-0.230570	-2.385833	 28.452750	 0.000004	 3.238879	-7.132687	-178.348600	-0.782021	-10.577470	 0.802623	 4.582207	 68.932350	 1.776343	 2.384659	 28.388700	-0.000001	-8.356119	 7.484668	 1.641680	-3.267014	-5.963054	-0.386254	 9.726456	 9.885202	-1.124362	-90.869600	 67.741770	-177.202000	-5.735021	 6.398461	-26.641300	 23.793890	-0.102155	-1.074308	-7.691218	-27.095730	-5.989811	-2.027600	 6.559038	 9.033609	-5.188889	 0.308190	 3.541030	-5.234859	 0.342567	 0.430617	 4.741182	 23.596160	-8.443517	 5.582823	-18.087670	 2.492869	 88.521310	 65.287540	 176.489700	 6.207313	 9.106869	 9.885982	-25.096850	-8.569499	 25.992020	 4.219616	-25.766720	 6.095619	 1.803333	 3.979147	-15.098590	 4.898592	 3.004813	-9.310344	 5.224449	 0.395017	 2.014677
